<?xml version="1.0" encoding="UTF-8" standalone="no"?>
<!-- Created with Inkscape (http://www.inkscape.org/) -->

<svg
   width="76.575516mm"
   height="57.362328mm"
   viewBox="0 0 76.575516 57.362328"
   version="1.1"
   id="svg1"
   xml:space="preserve"
   xmlns="http://www.w3.org/2000/svg"
   xmlns:svg="http://www.w3.org/2000/svg"><defs
     id="defs1" /><g
     id="layer1"
     transform="translate(-64.424051,-103.10454)"><g
       id="text2"
       style="font-weight:bold;font-size:85.3333px;line-height:0.8;font-family:Montserrat;-inkscape-font-specification:'Montserrat Bold';letter-spacing:-0.410416px;white-space:pre;stroke-width:1.02604"
       transform="matrix(0.25786848,0,0,0.25786848,-2.68735,69.068354)"
       aria-label="Mančal&#10;Malý&#10;group"><path
         style="font-weight:800;font-family:'Lexend Deca';-inkscape-font-specification:'Lexend Deca Ultra-Bold'"
         d="m 264.09438,197.27042 v -59.73331 h 14.76266 l 21.75999,35.41332 -11.51999,-0.0853 22.01599,-35.32799 h 14.25066 v 59.73331 h -16.29866 v -15.95733 q 0,-7.68 0.34133,-13.82399 0.42667,-6.144 1.36534,-12.20266 l 1.87733,5.03466 -15.27466,23.63732 h -5.632 l -14.93333,-23.63732 1.87734,-5.03466 q 0.93866,5.71733 1.28,11.77599 0.42666,5.97333 0.42666,14.25066 v 15.95733 z m 90.38428,0.768 q -5.632,0 -10.15466,-2.98667 -4.43733,-3.072 -7.08267,-8.36266 -2.55999,-5.376 -2.55999,-12.20266 0,-6.99733 2.55999,-12.288 2.56,-5.29066 7.08267,-8.27733 4.52266,-3.072 10.41066,-3.072 3.15733,0 5.80266,0.85334 2.64534,0.85333 4.608,2.47466 1.96267,1.62134 3.41333,3.66933 1.45067,2.048 2.38934,4.43734 l -3.24267,-0.17067 v -10.32533 h 15.616 v 45.48265 h -15.95733 v -11.09333 l 3.49866,0.17067 q -0.768,2.47466 -2.304,4.60799 -1.45066,2.13334 -3.58399,3.75467 -2.13334,1.536 -4.77867,2.47466 -2.56,0.85334 -5.71733,0.85334 z m 4.52267,-13.056 q 2.73066,0 4.69333,-1.19466 1.96266,-1.28 2.98666,-3.66933 1.10933,-2.38934 1.10933,-5.632 0,-3.328 -1.10933,-5.71733 -1.024,-2.38934 -2.98666,-3.584 -1.96267,-1.28 -4.69333,-1.28 -2.73067,0 -4.69334,1.28 -1.87733,1.19466 -2.90133,3.584 -1.024,2.38933 -1.024,5.71733 0,3.24266 1.024,5.632 1.024,2.38933 2.90133,3.66933 1.96267,1.19466 4.69334,1.19466 z"
         id="path1" /><path
         style="font-weight:500;font-family:'Lexend Deca';-inkscape-font-specification:'Lexend Deca Medium'"
         d="m 395.02818,197.27042 v -44.97065 h 10.24 l 0.17067,9.216 -1.96267,1.024 q 0.85333,-3.072 3.328,-5.54667 2.47466,-2.56 5.888,-4.096 3.41333,-1.536 6.99733,-1.536 5.11999,0 8.53333,2.048 3.49866,2.048 5.20533,6.144 1.792,4.096 1.792,10.24 v 27.47732 h -10.496 V 170.5611 q 0,-3.41334 -0.93867,-5.632 -0.93866,-2.304 -2.90133,-3.328 -1.96266,-1.10933 -4.77866,-1.024 -2.304,0 -4.26667,0.768 -1.87733,0.68267 -3.328,2.048 -1.36533,1.28 -2.21866,2.98666 -0.768,1.70667 -0.768,3.75467 v 27.13599 h -5.20533 q -1.536,0 -2.90133,0 -1.28,0 -2.38934,0 z m 70.84282,0.85333 q -6.31466,0 -11.34932,-3.072 -5.03467,-3.072 -7.936,-8.36266 -2.90133,-5.29067 -2.90133,-11.94666 0,-6.656 2.90133,-11.94666 2.90133,-5.29067 7.936,-8.36267 5.03466,-3.072 11.34932,-3.072 6.05867,0 11.008,2.304 4.94933,2.304 7.68,6.4 l -5.80267,6.99733 q -1.28,-1.792 -3.24266,-3.24266 -1.96267,-1.45067 -4.18134,-2.304 -2.21866,-0.85334 -4.43733,-0.85334 -3.75466,0 -6.74133,1.87734 -2.90133,1.792 -4.608,5.03466 -1.70666,3.15733 -1.70666,7.168 0,4.01066 1.70666,7.16799 1.792,3.15734 4.77867,5.03467 2.98666,1.87733 6.656,1.87733 2.21866,0 4.26666,-0.68266 2.13333,-0.768 4.01067,-2.13334 1.87733,-1.36533 3.49866,-3.41333 l 5.80267,7.08266 q -2.90134,3.75467 -8.02133,6.144 -5.03467,2.304 -10.66667,2.304 z m -3.83999,-52.65064 -9.984,-10.15467 3.84,-3.32799 11.26399,6.65599 h -2.56 l 11.264,-6.65599 3.84,3.32799 -9.984,10.15467 z m 47.12019,52.65064 q -5.54666,0 -10.06933,-3.072 -4.52266,-3.072 -7.25333,-8.36266 -2.73066,-5.29067 -2.73066,-12.032 0,-6.74133 2.73066,-12.03199 2.73067,-5.29067 7.424,-8.27733 4.69333,-2.98667 10.58133,-2.98667 3.41333,0 6.22933,1.024 2.816,0.93867 4.94933,2.73067 2.13333,1.792 3.49867,4.096 1.45066,2.304 1.96266,4.94933 l -2.304,-0.59733 v -11.264 h 10.58133 v 44.97065 h -10.66666 v -10.752 l 2.47467,-0.42666 q -0.59734,2.304 -2.21867,4.52266 -1.536,2.13333 -3.92533,3.84 -2.304,1.62133 -5.20533,2.64533 -2.816,1.024 -6.05867,1.024 z m 2.90133,-9.30133 q 3.66934,0 6.48534,-1.792 2.81599,-1.792 4.35199,-4.94933 1.62134,-3.24266 1.62134,-7.424 0,-4.09599 -1.62134,-7.25333 -1.536,-3.15733 -4.35199,-4.94933 -2.816,-1.792 -6.48534,-1.792 -3.66933,0 -6.48533,1.792 -2.73066,1.792 -4.26666,4.94933 -1.536,3.15734 -1.536,7.25333 0,4.18134 1.536,7.424 1.536,3.15733 4.26666,4.94933 2.816,1.792 6.48533,1.792 z m 34.57625,8.448 v -63.14664 h 10.58132 v 63.14664 z"
         id="path2" /><path
         style="font-weight:800;font-family:'Lexend Deca';-inkscape-font-specification:'Lexend Deca Ultra-Bold'"
         d="m 264.09438,266.04108 v -59.73331 h 14.76266 l 21.75999,35.41332 -11.51999,-0.0853 22.01599,-35.32799 h 14.25066 v 59.73331 h -16.29866 v -15.95733 q 0,-7.67999 0.34133,-13.82399 0.42667,-6.144 1.36534,-12.20266 l 1.87733,5.03466 -15.27466,23.63732 h -5.632 l -14.93333,-23.63732 1.87734,-5.03466 q 0.93866,5.71733 1.28,11.77599 0.42666,5.97333 0.42666,14.25066 v 15.95733 z m 90.38428,0.768 q -5.632,0 -10.15466,-2.98667 -4.43733,-3.072 -7.08267,-8.36266 -2.55999,-5.376 -2.55999,-12.20266 0,-6.99733 2.55999,-12.288 2.56,-5.29066 7.08267,-8.27733 4.52266,-3.072 10.41066,-3.072 3.15733,0 5.80266,0.85334 2.64534,0.85333 4.608,2.47466 1.96267,1.62134 3.41333,3.66934 1.45067,2.04799 2.38934,4.43733 l -3.24267,-0.17067 v -10.32533 h 15.616 v 45.48265 h -15.95733 v -11.09333 l 3.49866,0.17067 q -0.768,2.47466 -2.304,4.60799 -1.45066,2.13334 -3.58399,3.75467 -2.13334,1.536 -4.77867,2.47467 -2.56,0.85333 -5.71733,0.85333 z m 4.52267,-13.056 q 2.73066,0 4.69333,-1.19466 1.96266,-1.28 2.98666,-3.66933 1.10933,-2.38934 1.10933,-5.632 0,-3.328 -1.10933,-5.71733 -1.024,-2.38934 -2.98666,-3.584 -1.96267,-1.28 -4.69333,-1.28 -2.73067,0 -4.69334,1.28 -1.87733,1.19466 -2.90133,3.584 -1.024,2.38933 -1.024,5.71733 0,3.24266 1.024,5.632 1.024,2.38933 2.90133,3.66933 1.96267,1.19466 4.69334,1.19466 z"
         id="path3" /><path
         style="font-weight:500;font-family:'Lexend Deca';-inkscape-font-specification:'Lexend Deca Medium'"
         d="m 395.11352,266.04108 v -63.14664 h 10.58133 v 63.14664 z m 28.091,19.62666 9.55733,-22.10133 0.0853,6.99733 -22.18666,-49.49331 h 12.11733 l 12.37333,29.35466 q 0.59733,1.10933 1.19467,2.98666 0.59733,1.792 1.02399,3.584 l -2.13333,0.68267 q 0.59734,-1.62134 1.28,-3.41334 0.68267,-1.87733 1.28,-3.83999 l 10.58133,-29.35466 h 12.20266 l -18.77332,44.97065 -7.68,19.62666 z m 6.22933,-70.82664 -3.328,-5.03466 13.31199,-11.09333 5.80267,7.59466 z"
         id="path4" /><path
         style="font-weight:500;font-family:'Lexend Deca';-inkscape-font-specification:'Lexend Deca Medium'"
         d="m 283.37971,354.4384 q -5.03467,0 -10.06933,-1.536 -4.94933,-1.536 -8.02133,-4.01067 l 3.75466,-7.76533 q 1.792,1.28 4.01067,2.21867 2.21866,0.93867 4.69333,1.45066 2.56,0.512 5.03466,0.512 4.52267,0 7.50933,-1.45066 3.072,-1.36533 4.608,-4.26667 1.536,-2.816 1.536,-7.08266 v -8.27733 l 1.536,0.59733 q -0.512,2.64534 -2.816,5.03467 -2.304,2.38933 -5.80266,3.92533 -3.49867,1.45067 -7.168,1.45067 -6.4,0 -11.34933,-2.98667 -4.86399,-2.98667 -7.76533,-8.10666 -2.816,-5.20533 -2.816,-11.94666 0,-6.74134 2.816,-11.94667 2.816,-5.29066 7.68,-8.27733 4.94933,-3.072 11.09333,-3.072 2.56,0 4.94933,0.59734 2.38933,0.59733 4.352,1.70666 2.048,1.10934 3.66933,2.47467 1.62133,1.36533 2.64533,2.90133 1.024,1.536 1.28,2.98667 l -2.21866,0.68266 0.17066,-10.41066 h 10.32533 v 41.89865 q 0,5.46133 -1.62133,9.64266 -1.62133,4.18133 -4.69333,7.08267 -3.072,2.98666 -7.424,4.43733 -4.352,1.536 -9.89866,1.536 z m 0.42666,-28.15999 q 3.84,0 6.74133,-1.792 2.98667,-1.792 4.608,-4.94933 1.62134,-3.15733 1.62134,-7.25333 0,-4.18133 -1.70667,-7.33867 -1.62133,-3.24266 -4.52267,-5.03466 -2.90133,-1.792 -6.74133,-1.792 -3.83999,0 -6.74133,1.87733 -2.90133,1.792 -4.60799,5.03467 -1.62134,3.15733 -1.62134,7.25333 0,4.01066 1.62134,7.25333 1.70666,3.15733 4.60799,4.94933 2.90134,1.792 6.74133,1.792 z m 34.91759,8.53333 v -44.97065 h 10.32533 l 0.17066,14.336 -1.45066,-3.24267 q 0.93866,-3.41333 3.24266,-6.144 2.304,-2.73066 5.29067,-4.26666 3.072,-1.62134 6.39999,-1.62134 1.45067,0 2.73067,0.256 1.36533,0.256 2.21867,0.59734 l -2.816,11.51999 q -0.93867,-0.512 -2.304,-0.85333 -1.36534,-0.34133 -2.73067,-0.34133 -2.13333,0 -4.096,0.85333 -1.87733,0.768 -3.328,2.21867 -1.45066,1.45066 -2.30399,3.41333 -0.768,1.87733 -0.768,4.26666 v 23.97866 z m 54.20291,0.85333 q -6.74133,0 -12.032,-2.98666 -5.29066,-3.072 -8.36266,-8.36267 -3.072,-5.29066 -3.072,-12.03199 0,-6.74133 3.072,-12.032 3.072,-5.29066 8.36266,-8.27733 5.29067,-3.072 12.032,-3.072 6.65599,0 11.94666,3.072 5.29066,2.98667 8.27733,8.27733 3.072,5.29067 3.072,12.032 0,6.74133 -3.072,12.03199 -2.98667,5.29067 -8.27733,8.36267 -5.29067,2.98666 -11.94666,2.98666 z m 0,-9.30133 q 3.66933,0 6.48533,-1.87733 2.90133,-1.87733 4.52266,-5.03466 1.70667,-3.15734 1.62133,-7.168 0.0853,-4.096 -1.62133,-7.25333 -1.62133,-3.15733 -4.52266,-4.94933 -2.816,-1.87734 -6.48533,-1.87734 -3.66934,0 -6.656,1.87734 -2.90133,1.792 -4.52267,5.03466 -1.62133,3.15733 -1.62133,7.168 0,4.01066 1.62133,7.168 1.62134,3.15733 4.52267,5.03466 2.98666,1.87733 6.656,1.87733 z m 47.88827,9.30133 q -4.864,0 -8.448,-2.13333 -3.584,-2.21867 -5.46133,-6.22933 -1.87733,-4.096 -1.87733,-9.728 v -27.73332 h 10.49599 v 25.51466 q 0,3.584 1.10933,6.14399 1.10934,2.47467 3.24267,3.84 2.13333,1.36534 5.12,1.36534 2.21866,0 4.01066,-0.68267 1.87734,-0.768 3.24267,-2.048 1.36533,-1.36533 2.13333,-3.15733 0.768,-1.87733 0.768,-4.01067 v -26.96532 h 10.496 v 44.97065 h -10.24 l -0.17067,-9.38666 1.87734,-1.024 q -1.024,3.24266 -3.49867,5.80266 -2.38933,2.47467 -5.71733,4.01067 -3.328,1.45066 -7.08266,1.45066 z m 36.70958,17.91999 v -63.74397 h 10.32533 l 0.17067,10.24 -1.792,-0.768 q 0.512,-2.64533 2.90133,-4.94933 2.38933,-2.38934 5.80266,-3.84 3.49867,-1.45067 7.25333,-1.45067 5.97333,0 10.58133,2.98667 4.69333,2.98666 7.33867,8.19199 2.73066,5.20533 2.73066,12.032 0,6.74133 -2.73066,12.03199 -2.64534,5.20533 -7.33867,8.27733 -4.608,2.98667 -10.41066,2.98667 -3.92533,0 -7.59466,-1.536 -3.584,-1.536 -6.144,-4.01067 -2.47467,-2.47466 -3.072,-5.20533 l 2.56,-1.19466 v 29.95198 z m 22.69866,-27.30665 q 3.584,0 6.39999,-1.792 2.816,-1.792 4.352,-4.94933 1.62133,-3.15733 1.62133,-7.25333 0,-4.096 -1.53599,-7.168 -1.536,-3.15733 -4.352,-4.94933 -2.816,-1.792 -6.48533,-1.792 -3.75467,0 -6.57067,1.792 -2.73066,1.70667 -4.352,4.864 -1.62133,3.15733 -1.62133,7.25333 0,4.096 1.62133,7.25333 1.62134,3.15733 4.352,4.94933 2.816,1.792 6.57067,1.792 z"
         id="path5" /></g></g></svg>
