<?xml version="1.0" encoding="UTF-8" standalone="no"?>
<!-- Created with Inkscape (http://www.inkscape.org/) -->

<svg
   width="62.859051mm"
   height="62.859055mm"
   viewBox="0 0 62.859051 62.859055"
   version="1.1"
   id="svg1"
   xmlns="http://www.w3.org/2000/svg"
   xmlns:svg="http://www.w3.org/2000/svg">
  <defs
     id="defs1" />
  <g
     id="layer1"
     transform="translate(-144.91976,-215.26607)">
    <rect
       style="fill:#ffffff;fill-opacity:1;stroke:none;stroke-width:0.7;stroke-linecap:round;stroke-linejoin:round;stroke-opacity:1"
       id="rect186"
       width="62.859055"
       height="62.859055"
       x="144.91975"
       y="215.26605"
       ry="9.8767414"
       rx="9.8767414" />
    <path
       id="path9-9"
       style="-inkscape-font-specification:'Montserrat Heavy';fill:none;fill-opacity:1;stroke:#000000;stroke-width:1.5;stroke-opacity:1"
       d="m 190.60182,268.20422 c 0,-11.77988 0,-17.66981 -2.11359,-18.87363 -2.11359,-1.20381 -4.22719,3.48229 -7.78683,8.16842 -3.55964,4.68612 -5.0057,4.68612 -8.56959,-0.21123 -3.5639,-4.89735 -5.68174,-9.79472 -7.82314,-8.5909 -2.14138,1.20382 -2.16492,7.30501 -2.21201,19.50734" />
    <path
       id="path8-1"
       style="-inkscape-font-specification:'Montserrat Heavy';fill:none;fill-opacity:0;stroke:#000000;stroke-width:4;stroke-opacity:1"
       d="m 201.20592,268.40671 -0.11834,-41.42796 h -11.48147 l -13.12323,22.04878 -13.50874,-22.04878 h -11.48147 v 41.42796" />
  </g>
  <g
     id="g185"
     style="fill:none;fill-opacity:0.318841;stroke:#000000;stroke-width:0.54;stroke-opacity:1"
     transform="translate(-144.91976,-215.26607)">
    <path
       d="m 191.418,268.22 c 0,-10.874 -0.008,-18.985 -1.96,-20.545 -0.112,-0.105 -0.224,-0.173 -0.335,-0.202 -1.115,-0.289 -3.137,1.086 -4.548,3.121 -0.924,1.331 -2.211,3.36 -3.686,5.392 -2.118,2.882 -3.612,4.377 -4.933,4.012 -1.008,-0.279 -2.28,-1.738 -3.938,-4.077 -1.693,-2.4 -3.169,-4.846 -4.197,-6.341 -1.366,-1.988 -3.157,-3.188 -4.458,-2.554 -0.092,0.037 -0.17,0.08 -0.232,0.127 -1.786,1.368 -1.808,10.18 -1.85,21.067"
       style="fill:none;fill-opacity:0.318841;stroke:#000000;stroke-width:0.54;stroke-opacity:1"
       id="path174" />
    <path
       d="m 192.233,268.235 c 0,-9.967 -0.015,-20.299 -1.806,-22.216 -0.102,-0.14 -0.205,-0.227 -0.307,-0.254 -1.022,-0.265 -3.832,0.996 -5.126,2.861 -0.846,1.22 -2.294,3.53 -3.917,5.848 -2.218,3.105 -3.866,4.944 -5.077,4.609 -0.924,-0.255 -2.322,-1.972 -4.095,-4.529 -1.857,-2.697 -3.546,-5.487 -4.488,-6.858 -1.252,-1.822 -3.621,-2.922 -5,-2.34 -0.111,0.034 -0.199,0.072 -0.256,0.116 -1.637,1.253 -1.657,12.784 -1.696,22.763"
       style="fill:none;fill-opacity:0.318841;stroke:#000000;stroke-width:0.54;stroke-opacity:1"
       id="path175" />
    <path
       d="m 193.049,268.251 c 0,-9.061 -0.023,-21.614 -1.653,-23.888 -0.093,-0.176 -0.186,-0.282 -0.279,-0.306 -0.929,-0.241 -4.528,0.906 -5.704,2.601 -0.769,1.109 -2.377,3.7 -4.148,6.303 -2.318,3.329 -4.12,5.512 -5.221,5.208 -0.84,-0.232 -2.364,-2.206 -4.252,-4.982 -2.021,-2.994 -3.922,-6.128 -4.779,-7.374 -1.138,-1.656 -4.084,-2.656 -5.542,-2.128 -0.131,0.031 -0.228,0.066 -0.28,0.106 -1.488,1.139 -1.506,15.387 -1.541,24.46"
       style="fill:none;fill-opacity:0.318841;stroke:#000000;stroke-width:0.54;stroke-opacity:1"
       id="path176" />
    <path
       d="m 193.865,268.267 c 0,-8.156 -0.031,-22.929 -1.499,-25.559 -0.084,-0.213 -0.168,-0.337 -0.252,-0.359 -0.836,-0.217 -5.223,0.815 -6.281,2.341 -0.693,0.999 -2.462,3.87 -4.38,6.759 -2.417,3.553 -4.374,6.08 -5.365,5.806 -0.756,-0.209 -2.406,-2.44 -4.41,-5.435 -2.184,-3.291 -4.298,-6.769 -5.069,-7.891 -1.024,-1.49 -4.547,-2.39 -6.083,-1.915 -0.152,0.028 -0.258,0.06 -0.305,0.095 -1.339,1.026 -1.356,17.992 -1.387,26.158"
       style="fill:none;fill-opacity:0.318841;stroke:#000000;stroke-width:0.54;stroke-opacity:1"
       id="path177" />
    <path
       d="m 194.68,268.282 c 0,-7.249 -0.038,-24.243 -1.345,-27.23 -0.075,-0.248 -0.149,-0.391 -0.224,-0.41 -0.743,-0.193 -5.918,0.724 -6.859,2.08 -0.616,0.888 -2.545,4.04 -4.611,7.214 -2.517,3.777 -4.628,6.648 -5.509,6.405 -0.672,-0.186 -2.448,-2.674 -4.567,-5.887 -2.348,-3.59 -4.674,-7.411 -5.36,-8.408 -0.91,-1.325 -5.01,-2.125 -6.625,-1.702 -0.172,0.025 -0.287,0.053 -0.328,0.084 -1.191,0.912 -1.206,20.596 -1.234,27.854"
       style="fill:none;fill-opacity:0.318841;stroke:#000000;stroke-width:0.54;stroke-opacity:1"
       id="path178" />
    <path
       d="m 195.496,268.298 c 0,-6.343 -0.046,-25.559 -1.192,-28.902 -0.065,-0.284 -0.131,-0.445 -0.196,-0.462 -0.65,-0.169 -6.614,0.634 -7.437,1.82 -0.538,0.777 -2.629,4.211 -4.842,7.67 -2.617,4 -4.883,7.216 -5.653,7.003 -0.588,-0.163 -2.491,-2.908 -4.725,-6.34 -2.511,-3.887 -5.05,-8.052 -5.65,-8.924 -0.796,-1.16 -5.474,-1.86 -7.167,-1.49 -0.191,0.022 -0.316,0.046 -0.352,0.074 -1.042,0.798 -1.055,23.2 -1.079,29.551"
       style="fill:none;fill-opacity:0.318841;stroke:#000000;stroke-width:0.54;stroke-opacity:1"
       id="path179" />
    <path
       d="m 196.312,268.313 c 0,-5.437 -0.054,-26.873 -1.038,-30.572 -0.057,-0.32 -0.113,-0.501 -0.169,-0.515 -0.557,-0.145 -7.309,0.543 -8.015,1.56 -0.461,0.666 -2.712,4.381 -5.073,8.125 -2.716,4.225 -5.137,7.784 -5.797,7.602 -0.504,-0.14 -2.533,-3.142 -4.882,-6.793 -2.675,-4.184 -5.427,-8.693 -5.94,-9.441 -0.683,-0.994 -5.938,-1.594 -7.71,-1.276 -0.211,0.018 -0.345,0.039 -0.376,0.063 -0.893,0.684 -0.904,25.804 -0.925,31.247"
       style="fill:none;fill-opacity:0.318841;stroke:#000000;stroke-width:0.54;stroke-opacity:1"
       id="path180" />
    <path
       d="m 197.127,268.329 c 0,-4.531 -0.061,-28.188 -0.884,-32.244 -0.047,-0.356 -0.094,-0.555 -0.141,-0.567 -0.464,-0.121 -8.004,0.453 -8.592,1.3 -0.385,0.555 -2.796,4.551 -5.305,8.58 -2.816,4.449 -5.391,8.352 -5.941,8.2 -0.421,-0.116 -2.575,-3.375 -5.04,-7.245 -2.838,-4.481 -5.802,-9.334 -6.23,-9.957 -0.569,-0.828 -6.401,-1.328 -8.251,-1.064 -0.232,0.015 -0.375,0.033 -0.401,0.053 -0.744,0.569 -0.753,28.408 -0.771,32.944"
       style="fill:none;fill-opacity:0.318841;stroke:#000000;stroke-width:0.54;stroke-opacity:1"
       id="path181" />
    <path
       d="m 197.943,268.344 c 0,-3.624 -0.069,-29.502 -0.731,-33.915 -0.038,-0.392 -0.075,-0.609 -0.113,-0.619 -0.371,-0.096 -8.7,0.362 -9.17,1.04 -0.308,0.444 -2.88,4.721 -5.536,9.036 -2.916,4.672 -5.645,8.92 -6.086,8.798 -0.336,-0.093 -2.616,-3.609 -5.196,-7.698 -3.002,-4.778 -6.179,-9.975 -6.521,-10.474 -0.456,-0.662 -6.864,-1.062 -8.793,-0.851 -0.251,0.013 -0.404,0.027 -0.425,0.042 -0.595,0.456 -0.603,31.012 -0.617,34.641"
       style="fill:none;fill-opacity:0.318841;stroke:#000000;stroke-width:0.54;stroke-opacity:1"
       id="path182" />
    <path
       d="m 198.759,268.36 c 0,-2.718 -0.077,-30.817 -0.577,-35.587 -0.029,-0.427 -0.058,-0.663 -0.086,-0.671 -0.278,-0.072 -9.395,0.272 -9.748,0.781 -0.231,0.332 -2.963,4.89 -5.768,9.49 -3.014,4.896 -5.898,9.488 -6.229,9.397 -0.252,-0.07 -2.658,-3.844 -5.354,-8.151 -3.165,-5.076 -6.554,-10.616 -6.811,-10.99 -0.342,-0.497 -7.327,-0.797 -9.335,-0.638 -0.271,0.009 -0.433,0.019 -0.449,0.031 -0.446,0.342 -0.452,33.616 -0.462,36.338"
       style="fill:none;fill-opacity:0.318841;stroke:#000000;stroke-width:0.54;stroke-opacity:1"
       id="path183" />
    <path
       d="m 199.575,268.376 c 0,-1.813 -0.085,-32.133 -0.424,-37.258 -0.02,-0.464 -0.039,-0.719 -0.058,-0.724 -0.185,-0.048 -10.09,0.182 -10.325,0.521 -0.154,0.221 -3.048,5.06 -6,9.946 -3.114,5.12 -6.153,10.056 -6.373,9.995 -0.168,-0.047 -2.701,-4.078 -5.511,-8.603 -3.329,-5.374 -6.931,-11.258 -7.102,-11.507 -0.228,-0.332 -7.791,-0.532 -9.877,-0.426 -0.291,0.006 -0.462,0.013 -0.473,0.021 -0.297,0.228 -0.301,36.22 -0.308,38.035"
       style="fill:none;fill-opacity:0.318841;stroke:#000000;stroke-width:0.54;stroke-opacity:1"
       id="path184" />
    <path
       d="m 200.39,268.391 c 0,-0.906 -0.091,-33.447 -0.269,-38.929 -0.011,-0.499 -0.021,-0.773 -0.03,-0.775 -0.093,-0.025 -10.787,0.09 -10.904,0.26 -0.077,0.111 -3.131,5.231 -6.231,10.401 -3.214,5.344 -6.407,10.624 -6.517,10.594 -0.084,-0.024 -2.743,-4.312 -5.668,-9.056 -3.493,-5.671 -7.307,-11.899 -7.393,-12.024 -0.114,-0.165 -8.254,-0.265 -10.418,-0.213 -0.312,0.003 -0.492,0.007 -0.497,0.011 -0.149,0.114 -0.151,38.824 -0.155,39.731"
       style="fill:none;fill-opacity:0.318841;stroke:#000000;stroke-width:0.54;stroke-opacity:1"
       id="path185" />
  </g>
</svg>
